ModelForces
version=1
nRows=4
nColumns=155
inDegrees=no

This file contains the forces exerted on a model during a simulation.

A force is a generalized force, meaning that it can be either a force (N) or a torque (Nm).

Units are S.I. units (second, meters, Newtons, ...)
Angles are in degrees.

endheader
time	glut_med1_r	glut_med2_r	glut_med3_r	glut_min1_r	glut_min2_r	glut_min3_r	semimem_r	semiten_r	bifemlh_r	bifemsh_r	sar_r	add_long_r	add_brev_r	add_mag1_r	add_mag2_r	add_mag3_r	tfl_r	pect_r	grac_r	glut_max1_r	glut_max2_r	glut_max3_r	iliacus_r	psoas_r	quad_fem_r	gem_r	peri_r	rect_fem_r	vas_med_r	vas_int_r	vas_lat_r	med_gas_r	lat_gas_r	soleus_r	tib_post_r	flex_dig_r	flex_hal_r	tib_ant_r	per_brev_r	per_long_r	per_tert_r	ext_dig_r	ext_hal_r	glut_med1_l	glut_med2_l	glut_med3_l	glut_min1_l	glut_min2_l	glut_min3_l	semimem_l	semiten_l	bifemlh_l	bifemsh_l	sar_l	add_long_l	add_brev_l	add_mag1_l	add_mag2_l	add_mag3_l	tfl_l	pect_l	grac_l	glut_max1_l	glut_max2_l	glut_max3_l	iliacus_l	psoas_l	quad_fem_l	gem_l	peri_l	rect_fem_l	vas_med_l	vas_int_l	vas_lat_l	med_gas_l	lat_gas_l	soleus_l	tib_post_l	flex_dig_l	flex_hal_l	tib_ant_l	per_brev_l	per_long_l	per_tert_l	ext_dig_l	ext_hal_l	ercspn_r	ercspn_l	intobl_r	intobl_l	extobl_r	extobl_l	femur_lat_meniscii_r.femur_lat_r.force.X	femur_lat_meniscii_r.femur_lat_r.force.Y	femur_lat_meniscii_r.femur_lat_r.force.Z	femur_lat_meniscii_r.femur_lat_r.torque.X	femur_lat_meniscii_r.femur_lat_r.torque.Y	femur_lat_meniscii_r.femur_lat_r.torque.Z	femur_lat_meniscii_r.meniscus_lat_r.force.X	femur_lat_meniscii_r.meniscus_lat_r.force.Y	femur_lat_meniscii_r.meniscus_lat_r.force.Z	femur_lat_meniscii_r.meniscus_lat_r.torque.X	femur_lat_meniscii_r.meniscus_lat_r.torque.Y	femur_lat_meniscii_r.meniscus_lat_r.torque.Z	femur_med_meniscii_r.femur_med_r.force.X	femur_med_meniscii_r.femur_med_r.force.Y	femur_med_meniscii_r.femur_med_r.force.Z	femur_med_meniscii_r.femur_med_r.torque.X	femur_med_meniscii_r.femur_med_r.torque.Y	femur_med_meniscii_r.femur_med_r.torque.Z	femur_med_meniscii_r.meniscus_med_r.force.X	femur_med_meniscii_r.meniscus_med_r.force.Y	femur_med_meniscii_r.meniscus_med_r.force.Z	femur_med_meniscii_r.meniscus_med_r.torque.X	femur_med_meniscii_r.meniscus_med_r.torque.Y	femur_med_meniscii_r.meniscus_med_r.torque.Z	femur_med_tibia_r.tibia_upper_r.force.X	femur_med_tibia_r.tibia_upper_r.force.Y	femur_med_tibia_r.tibia_upper_r.force.Z	femur_med_tibia_r.tibia_upper_r.torque.X	femur_med_tibia_r.tibia_upper_r.torque.Y	femur_med_tibia_r.tibia_upper_r.torque.Z	femur_med_tibia_r.femur_med_r.force.X	femur_med_tibia_r.femur_med_r.force.Y	femur_med_tibia_r.femur_med_r.force.Z	femur_med_tibia_r.femur_med_r.torque.X	femur_med_tibia_r.femur_med_r.torque.Y	femur_med_tibia_r.femur_med_r.torque.Z	femur_lat_tibia_r.tibia_upper_r.force.X	femur_lat_tibia_r.tibia_upper_r.force.Y	femur_lat_tibia_r.tibia_upper_r.force.Z	femur_lat_tibia_r.tibia_upper_r.torque.X	femur_lat_tibia_r.tibia_upper_r.torque.Y	femur_lat_tibia_r.tibia_upper_r.torque.Z	femur_lat_tibia_r.femur_lat_r.force.X	femur_lat_tibia_r.femur_lat_r.force.Y	femur_lat_tibia_r.femur_lat_r.force.Z	femur_lat_tibia_r.femur_lat_r.torque.X	femur_lat_tibia_r.femur_lat_r.torque.Y	femur_lat_tibia_r.femur_lat_r.torque.Z	aACL_R	pACL_R	aPCL_R	pPCL_R	aMCL_R	mMCL_R	pMCL_R	aLCL_R	mLCL_R	pLCL_R	aPCL_L	pPCL_L	aMCL_L	aLCL_L
      0.07454674	      0.00000000	     14.14691277	     14.61403617	      6.60570251	      7.51197829	      6.35028945	      0.00000000	    237.72164979	    314.93308194	    430.17392153	    139.22088552	     14.62126545	     10.20315213	      0.00000000	      0.00000000	     10.72372377	      4.66373433	      0.00000000	    122.06783217	      8.81717421	     14.28346992	     10.87744849	     39.25150969	     31.85214101	      0.00000000	      5.52341988	      0.00000000	     46.51316179	      0.00000000	      0.00000000	      0.00000000	     58.09185529	     32.91874015	      0.00000000	     33.24308321	     10.49252879	      8.49320971	      5.62394249	      3.22843063	     15.70586347	      0.00000000	     13.74768840	      4.76447261	      0.00000000	     14.14691277	     14.61403617	      6.60570251	      7.51197829	      6.35028945	      0.00000000	     11.12992176	      8.19382510	     18.29296382	      3.75994406	     14.62126545	     10.20315213	      0.00000000	      0.00000000	     10.72372377	      8.12169813	      0.00000000	      3.91625363	      8.81717421	     14.28346992	     10.87744849	     39.25150969	     31.85214101	      0.00000000	      5.52341988	      0.00000000	     27.71192855	      0.00000000	      0.00000000	      0.00000000	      0.00000000	      0.00000000	     36.72151076	     59.84046018	     10.97135007	      9.58184285	      9.44498008	     10.16637973	     22.17327543	      4.84606397	      6.72478343	      2.01471422	     62.24743691	     62.24743691	     23.98698846	     23.98698846	     40.54192142	     40.54192142	     78.58693476	    291.48399198	     22.63192231	    -16.32389987	      1.93004814	     32.78394067	    -78.58693476	   -291.48399198	    -22.63192231	      8.65224608	     -2.37024085	     -0.47555459	     29.88027652	    150.96587302	      4.20194372	      1.43011986	     -0.54265892	     11.92790610	    -29.88027652	   -150.96587302	     -4.20194372	     -2.52257143	      0.40853296	      0.65941112	     -2.07836724	   -567.75714311	     66.53357302	    -11.96348817	      0.31553772	      2.88887742	      2.07836724	    567.75714311	    -66.53357302	     39.39910050	      0.17966870	      2.19394379	     -7.56063946	   -343.64852830	    -71.09784803	     11.52338703	     -0.53361023	      1.35366620	      7.56063946	    343.64852830	     71.09784803	    -37.58419827	     -0.02908987	      4.13746288	     62.45419893	     47.32123609	      0.00000000	      0.00000000	      0.00000000	     -7.22002834	    -25.04106437	      0.00000000	      0.00000000	      0.00000000	      0.00000000	      0.00000000	      0.00000001	      0.00000000
      0.07577947	      0.00000000	     14.07595856	     14.62119134	      6.54045579	      7.43990811	      6.54126988	      0.00000000	    237.09217434	    312.52267806	    428.79132409	    139.28600640	     14.47072018	     10.10321317	      0.00000000	      0.00000000	     10.64488763	      4.69096077	      0.00000000	    121.96453767	      8.81587536	     14.15556863	     10.76801836	     38.96964635	     31.53204622	      0.00000000	      5.48442654	      0.00000000	     46.75078353	      0.00000000	      0.00000000	      0.00000000	     54.23326693	     30.57619970	      0.00000000	     32.06996722	     11.17890100	      8.99367938	     15.52819627	      2.86739825	     13.94942698	      2.24928868	     15.06253959	      5.26899812	      0.00000000	     14.07595856	     14.62119134	      6.54045579	      7.43990811	      6.54126988	      0.00000000	     11.01197892	      9.02986823	     18.10868487	      3.72296056	     14.47072018	     10.10321317	      0.00000000	      0.00000000	     10.64488763	      8.07751476	      0.00000000	      3.87714827	      8.81587536	     14.15556863	     10.76801836	     38.96964635	     31.53204622	      0.00000000	      5.48442654	      0.00000000	     27.62136215	      0.00000000	      0.00000000	      0.00000000	      0.00000000	      0.00000000	     38.76827372	     59.82817607	     11.01843616	      9.71067269	     10.52934436	     10.18424594	     22.22221814	      4.80488945	      6.85042833	      2.06439620	     61.63142947	     61.63142947	     23.73823892	     23.73823892	     40.30726292	     40.30726292	     78.94945502	    292.53955891	     20.90596078	    -15.60952226	      1.92623879	     32.91754374	    -78.94945502	   -292.53955891	    -20.90596078	      8.59767025	     -2.35775775	     -0.39962848	     33.11231665	    151.74571320	      2.54053723	      2.13378368	     -0.61937526	     13.25987091	    -33.11231665	   -151.74571320	     -2.54053723	     -2.58960135	      0.48672886	      0.60400845	    -13.62989798	   -562.87949709	     68.23147113	    -11.95763311	      0.54504834	      2.60816814	     13.62989798	    562.87949709	    -68.23147113	     40.01829105	     -0.06193578	      6.98268560	     -8.98200447	   -330.46829547	    -66.59403495	     11.00094485	     -0.56794111	      1.34094469	      8.98200447	    330.46829547	     66.59403495	    -35.38756125	      0.02042155	      4.66527725	     64.43663810	     48.30039728	      0.00000000	      0.00000000	      0.00000000	     -6.63922256	    -25.31160063	      0.00000000	      0.00000000	      0.00000000	      0.00000000	      0.00000000	      0.00000001	      0.00000000
      0.07701219	      0.00000000	     13.99491118	     14.60618777	      6.47633032	      7.36904292	      6.69444357	      0.00000000	    236.64133501	    310.02716969	    427.35234236	    139.50100991	     14.32279033	     10.00498720	      0.00000000	      0.00000000	     10.56456812	      4.71769876	      0.00000000	    121.96676540	      8.80288659	     14.02705080	     10.66002080	     38.69279595	     31.21763803	      0.00000000	      5.44544867	      0.00000000	     45.12849764	      0.00000000	      0.00000000	      0.00000000	     50.22852327	     28.15200553	      0.00000000	     30.65068440	     11.71133399	      9.40302078	     28.31766532	      2.63324899	     12.51552396	      5.09674525	     16.53152641	      5.75807572	      0.00000000	     13.99491118	     14.60618777	      6.47633032	      7.36904292	      6.69444357	      0.00000000	     10.89609615	      9.76956499	     17.92759503	      3.68661196	     14.32279033	     10.00498720	      0.00000000	      0.00000000	     10.56456812	      8.03266702	      0.00000000	      3.83871756	      8.80288659	     14.02705080	     10.66002080	     38.69279595	     31.21763803	      0.00000000	      5.44544867	      0.00000000	     27.52259582	      0.00000000	      0.00000000	      0.00000000	      0.00000000	      0.00000000	     40.64854019	     59.81077452	     11.03690576	      9.81193871	     11.46890936	     10.19507593	     22.26322093	      4.76366616	      6.98636309	      2.11796027	     61.02602000	     61.02602000	     23.49355532	     23.49355532	     40.07682327	     40.07682327	     70.57500880	    295.53850254	     23.64740536	    -16.83346906	      1.72117820	     29.36211760	    -70.57500880	   -295.53850254	    -23.64740536	      8.77708547	     -2.14951864	      0.03520622	     34.44270042	    154.79473625	      2.83380662	      2.06012689	     -0.63887921	     13.77711943	    -34.44270042	   -154.79473625	     -2.83380662	     -2.62011205	      0.49929210	      0.65391177	    -13.75220992	   -558.49264883	     62.98962193	    -11.66137288	      0.54889659	      2.80446374	     13.75220992	    558.49264883	    -62.98962193	     37.69177937	     -0.09312663	      6.91967440	     -1.34694153	   -317.44243498	    -66.20312063	     10.65333321	     -0.39553395	      1.69246084	      1.34694153	    317.44243498	     66.20312063	    -34.93991279	     -0.13715344	      1.35588767	     64.75904211	     47.53611653	      0.00000000	      0.00000000	      0.00000000	     -5.19338083	    -24.76794055	      0.00000000	      0.00000000	      0.00000000	      0.00000000	      0.00000000	      0.00000001	      0.00000000
      0.07824492	      0.00000000	     13.90560840	     14.57524626	      6.41330574	      7.29937087	      6.81563807	      0.00000000	    236.24219944	    307.40016688	    425.98577696	    139.66992679	     14.17742716	      9.90844282	      0.00000000	      0.00000000	     10.48300246	      4.74449859	      0.00000000	    121.97882905	      8.78021867	     13.89835442	     10.55349435	     38.42086220	     30.90880330	      0.00000000	      5.40655235	      0.00000000	     46.00948207	      0.00000000	      0.00000000	      0.00000000	     46.32245793	     25.77479807	      0.00000000	     29.00978599	     12.01976000	      9.70046180	     36.57981429	      2.50020834	     11.39199648	      7.33831829	     18.03358469	      6.10144243	      0.00000000	     13.90560840	     14.57524626	      6.41330574	      7.29937087	      6.81563807	      0.00000000	     10.78223347	     10.42621249	     17.74963551	      3.65088663	     14.17742716	      9.90844282	      0.00000000	      0.00000000	     10.48300246	      7.98723338	      0.00000000	      3.80094908	      8.78021867	     13.89835442	     10.55349435	     38.42086220	     30.90880330	      0.00000000	      5.40655235	      0.00000000	     27.41601040	      0.00000000	      0.00000000	      0.00000000	      0.00000000	      0.00000000	     42.37684951	     59.78823045	     11.02814754	      9.88568611	     12.28606502	     10.19937416	     22.29664785	      4.72247853	      7.13199582	      2.17519093	     60.43101373	     60.43101373	     23.25289513	     23.25289513	     39.85052012	     39.85052012	     69.59411919	    295.72879732	     22.11116084	    -16.17851476	      1.68854591	     28.92697640	    -69.59411919	   -295.72879732	    -22.11116084	      8.70684101	     -2.10504790	      0.16042381	     35.48120384	    154.36247510	      0.56850423	      2.99965702	     -0.66643717	     14.19095536	    -35.48120384	   -154.36247510	     -0.56850423	     -2.69538370	      0.54177332	      0.66810183	    -20.74530789	   -545.49851250	     64.18050251	    -11.49107583	      0.69948314	      2.65397721	     20.74530789	    545.49851250	    -64.18050251	     37.92691392	     -0.24393800	      9.76285912	     -1.32080220	   -304.25478133	    -62.11836641	     10.15094154	     -0.39289441	      1.72438228	      1.32080220	    304.25478133	     62.11836641	    -32.92257200	     -0.12039311	      1.27387755	     66.65713672	     48.37993322	      0.00000000	      0.00000000	      0.00000000	     -3.90718149	    -24.31519210	      0.00000000	      0.00000000	      0.00000000	      0.00000000	      0.00000000	      0.00000001	      0.00000000
